<?xml version="1.0" standalone="no"?>
  <!DOCTYPE svg PUBLIC "-//W3C//DTD SVG 1.1//EN" 
      "http://www.w3.org/Graphics/SVG/1.1/DTD/svg11.dtd">
  <svg width="21cm" height="29.7cm"
      xmlns="http://www.w3.org/2000/svg" version="1.1" viewBox="0 0 744.09449 1052.3622">
    <g>
      <path d="M558.07087 526.1811 L488.03108 671.62023 L330.65309 707.54072 L204.44575 606.89373 L204.44575 445.46848 L330.65309 344.82148 L488.03108 380.74198 L558.07087 526.1811 M584.11417 526.1811 L504.26881 691.9817 L324.85791 732.93107 L180.98154 618.19349 L180.98154 434.16871 L324.85791 319.43113 L504.26881 360.3805 L584.11417 526.1811 M610.15748 526.1811 L520.50655 712.34318 L319.06273 758.32142 L157.51733 629.49326 L157.51733 422.86894 L319.06273 294.04079 L520.50655 340.01902 L610.15748 526.1811 M636.20079 526.1811 L536.74428 732.70466 L313.26755 783.71176 L134.05313 640.79303 L134.05313 411.56918 L313.26755 268.65044 L536.74428 319.65755 L636.20079 526.1811 M662.24409 526.1811 L552.98202 753.06614 L307.47237 809.10211 L110.58892 652.0928 L110.58892 400.26941 L307.47237 243.26009 L552.98202 299.29607 L662.24409 526.1811 M688.2874 526.1811 L569.21976 773.42761 L301.67719 834.49246 L87.12471 663.39256 L87.12471 388.96964 L301.67719 217.86975 L569.21976 278.93459 L688.2874 526.1811 M708.66142 537.95351 L585.45749 793.78909 L295.88201 859.88281 L63.6605 674.69233 L63.6605 377.66987 L295.88201 192.4794 L585.45749 258.57311 L708.66142 514.4087 M708.66142 592.03299 L601.69523 814.15057 L290.08683 885.27315 L40.19629 685.9921 L40.19629 366.37011 L290.08683 167.08905 L601.69523 238.21164 L708.66142 460.32921 M708.66142 646.11248 L617.93297 834.51205 L284.29165 910.6635 L35.43307 712.20541 M35.43307 340.1568 L284.29165 141.6987 L617.93297 217.85016 L708.66142 406.24973 M708.66142 700.19196 L634.1707 854.87352 L278.49646 936.05385 L35.43307 742.21726 M35.43307 310.14495 L278.49646 116.30836 L634.1707 197.48868 L708.66142 352.17024 M708.66142 754.27144 L650.40844 875.235 L272.70128 961.44419 L35.43307 772.22911 M35.43307 280.1331 L272.70128 90.91801 L650.40844 177.1272 L708.66142 298.09076 M708.66142 808.35093 L666.64618 895.59648 L266.9061 986.83454 L35.43307 802.24096 M35.43307 250.12125 L266.9061 65.52766 L666.64618 156.76573 L708.66142 244.01128 M708.66142 862.43041 L682.88391 915.95796 L261.11092 1012.22489 L35.43307 832.25281 M35.43307 220.1094 L261.11092 40.13732 L682.88391 136.40425 L708.66142 189.93179 M708.66142 916.5099 L699.12165 936.31943 L345.94747 1016.92913 M229.37619 1016.92913 L35.43307 862.26466 M35.43307 190.09755 L229.37619 35.43307 M345.94747 35.43307 L699.12165 116.04277 L708.66142 135.85231 M708.66142 958.20968 L451.39467 1016.92913 M191.74252 1016.92913 L35.43307 892.27651 M35.43307 160.0857 L191.74252 35.43307 M451.39467 35.43307 L708.66142 94.15253 M708.66142 982.27731 L556.84187 1016.92913 M154.10885 1016.92913 L35.43307 922.28836 M35.43307 130.07385 L154.10885 35.43307 M556.84187 35.43307 L708.66142 70.08489 M708.66142 1006.34495 L662.28906 1016.92913 M116.47518 1016.92913 L35.43307 952.30021 M35.43307 100.062 L116.47518 35.43307 M662.28906 35.43307 L708.66142 46.01726 M78.84151 1016.92913 L35.43307 982.31206 M35.43307 70.05015 L78.84151 35.43307 M41.20784 1016.92913 L35.43307 1012.32391 M35.43307 40.0383 L41.20784 35.43307" fill="none" stroke="black" stroke-width="0.03cm" />
    </g>
</svg>