<?xml version="1.0" standalone="no"?>
  <!DOCTYPE svg PUBLIC "-//W3C//DTD SVG 1.1//EN" 
      "http://www.w3.org/Graphics/SVG/1.1/DTD/svg11.dtd">
  <svg width="21cm" height="29.7cm"
      xmlns="http://www.w3.org/2000/svg" version="1.1" viewBox="0 0 744.09449 1052.3622">
    <g>
      <path d="M558.07087 526.1811 L556.54361 549.96928 L551.98694 573.36685 L544.47566 595.98963 L534.13311 617.46616 L521.12911 637.44379 L505.67719 655.59449 L488.03108 671.62023 L468.48051 685.25786 L447.34651 696.28345 L424.9761 704.51597 L401.73659 709.82023 L378.00959 712.10915 L354.18469 711.34513 L330.65309 707.54072 L307.80119 700.7584 L286.0042 691.10952 L265.62003 678.75252 L246.9834 663.8903 L230.40031 646.7669 L216.14306 627.66348 L204.44575 606.89373 L195.50046 584.79867 L189.45405 561.74112 L186.40583 538.09968 L186.40583 514.26253 L189.45405 490.62108 L195.50046 467.56353 L204.44575 445.46848 L216.14306 424.69872 L230.40031 405.59531 L246.9834 388.47191 L265.62003 373.60969 L286.0042 361.25269 L307.80119 351.60381 L330.65309 344.82148 L354.18469 341.01707 L378.00959 340.25306 L401.73659 342.54197 L424.9761 347.84624 L447.34651 356.07875 L468.48051 367.10435 L488.03108 380.74198 L505.67719 396.76771 L521.12911 414.91842 L534.13311 434.89605 L544.47566 456.37257 L551.98694 478.99536 L556.54361 502.39293 L558.07087 526.1811 M669.68504 526.1811 L667.24144 564.24218 L659.95075 601.67829 L647.9327 637.87475 L631.38462 672.23719 L610.57823 704.2014 L585.85516 733.24252 L557.62137 758.8837 L526.34047 780.70391 L492.52607 798.34486 L456.73341 811.51689 L419.5502 820.00371 L381.587 823.66598 L343.46716 822.44355 L305.8166 816.3565 L269.25355 805.50477 L234.37837 790.06657 L201.7637 770.29536 L171.94509 746.51581 L145.41215 719.11837 L122.60055 688.55291 L103.88486 655.3213 L89.57238 619.96922 L79.89814 583.07714 L75.02098 545.25082 L75.02098 507.11138 L79.89814 469.28507 L89.57238 432.39299 L103.88486 397.0409 L122.60055 363.8093 L145.41215 333.24383 L171.94509 305.84639 L201.7637 282.06684 L234.37837 262.29564 L269.25355 246.85743 L305.8166 236.00571 L343.46716 229.91866 L381.587 228.69623 L419.5502 232.35849 L456.73341 240.84532 L492.52607 254.01735 L526.34047 271.6583 L557.62137 293.4785 L585.85516 319.11968 L610.57823 348.1608 L631.38462 380.12501 L647.9327 414.48746 L659.95075 450.68391 L667.24144 488.12003 L669.68504 526.1811 M708.66142 757.69476 L700.02735 770.95901 L666.03313 810.89056 L627.21167 846.14718 L584.20042 876.14996 L537.70562 900.40627 L488.49072 918.51781 L437.36382 930.18719 L385.16442 935.2228 L332.74963 933.54196 L280.98011 925.17227 L230.70592 910.25115 L182.75254 889.02361 L137.90737 861.83821 L96.90678 829.14133 L60.42399 791.46985 L35.43307 757.9843 M35.43307 294.37791 L60.42399 260.89236 L96.90678 223.22087 L137.90737 190.52399 L182.75254 163.33859 L230.70592 142.11105 L280.98011 127.18994 L332.74963 118.82024 L385.16442 117.1394 L437.36382 122.17501 L488.49072 133.8444 L537.70562 151.95594 L584.20042 176.21224 L627.21167 206.21503 L666.03313 241.47165 L700.02735 281.40319 L708.66142 294.66744 M708.66142 922.64022 L696.80197 933.41065 L642.06038 971.59601 L582.88518 1002.46768 L543.58873 1016.92913 M198.6665 1016.92913 L192.15828 1014.99753 L131.12671 987.98066 L74.05105 953.38106 L35.43307 922.58425 M35.43307 129.77795 L74.05105 98.98114 L131.12671 64.38154 L192.15828 37.36468 L198.6665 35.43307 M543.58873 35.43307 L582.88518 49.89453 L642.06038 80.76619 L696.80197 118.95155 L708.66142 129.72199" fill="none" stroke="black" stroke-width="0.03cm" />
    </g>
</svg>